<svg width="800" height="800" viewBox="0 0 512 512" xmlns="http://www.w3.org/2000/svg"><path d="M278.576 217.694l16.361-.088c10.38-10.87 22.911-23.795 39.287-22.836 16.44-.884 28.908 11.816 39.29 22.836 6.948.267 20.359-.764 26.861 1.662V115.144h-288.75v166.25h119.612l8.139-8.225.175-16.363a39.48 39.48 0 0139.025-39.112zM168.5 181.206c-17.203-.259-17.3-25.971 0-26.25h175c17.182.304 17.282 25.925 0 26.25z"/><path d="M452.875 49.52H59.125A13.088 13.088 0 0046 62.556v271.337a13.163 13.163 0 0013.125 13.125h175.613c-11.63-10.28-20.232-23.755-17.763-39.375H98.5a13.163 13.163 0 01-13.125-13.125v-192.5A13.107 13.107 0 0198.5 88.894h315a13.163 13.163 0 0113.125 13.125v141.837c3.328 7.409 2.217 21.239 2.45 29.313l11.55 11.637c18.46 19.471 12.86 46.106-6.912 62.213h19.162A13.22 13.22 0 00466 333.894V62.557a13.145 13.145 0 00-13.125-13.038zM409.738 407.043l-36.224.263-16.714 16.45 13.018 35.836a4.374 4.374 0 008.075.357l12.157-26.043 25.94 12.14a4.375 4.375 0 005.965-5.458zM258.8 407.043l-12.217 33.545a4.375 4.375 0 005.965 5.458l25.94-12.14 12.162 26.051a4.372 4.372 0 008.07-.354l13.019-35.76-16.802-16.537z"/><path d="M402.93 283.996l-.197-27.036a13.099 13.099 0 00-13-13.001l-27.037-.197-19.25-18.973a13.096 13.096 0 00-18.386 0l-19.248 18.973-27.036.197a13.094 13.094 0 00-13 13l-.2 27.037-18.971 19.247a13.095 13.095 0 000 18.388l18.972 19.249.196 27.036a13.098 13.098 0 0013.001 13.001l27.037.197 19.25 18.973a13.096 13.096 0 0018.386 0l19.247-18.973 27.037-.197a13.097 13.097 0 0013-13l.199-27.037 18.972-19.248a13.094 13.094 0 000-18.387zm-68.675 63.442c-46.263-1.427-46.254-68.58 0-70 46.262 1.429 46.25 68.578 0 70z"/></svg>