<svg xmlns="http://www.w3.org/2000/svg" viewBox="-15.36 -15.36 542.72 542.72" width="256" height="256" fill="#01142B"><g stroke-linecap="round" stroke-linejoin="round" stroke="#2ecc71" stroke-width="18.432"><g fill="#00bdd8"><path d="M189.217 166.957h133.565v33.948H189.217zM467.478 267.687h-33.391v-66.783h33.391c18.442 0 33.391 14.949 33.391 33.391h0c.001 18.443-14.949 33.392-33.391 33.392zM44.522 267.687h33.391v-66.783H44.522c-18.442 0-33.391 14.949-33.391 33.391h0c-.001 18.443 14.949 33.392 33.391 33.392z"/></g><g fill="#3af4ef"><path d="M356.174 166.957H155.826V88.209c0-42.569 34.509-77.078 77.078-77.078h46.191c42.569 0 77.078 34.509 77.078 77.078v78.748zM322.968 434.087H189.031c-61.369 0-111.118-49.75-111.118-111.118V202.203c0-.717.581-1.299 1.299-1.299h353.577c.717 0 1.299.581 1.299 1.299v120.765c-.001 61.369-49.751 111.119-111.12 111.119z"/></g><g fill="#2ecc71"><circle cx="289.391" cy="100.174" r="22.261"/><path d="M256 500.87h0c-24.588 0-44.522-19.933-44.522-44.522v-22.261h89.043v22.261c.001 24.588-19.933 44.522-44.521 44.522zM278.261 245.426v32.835H389.565v-32.835z"/></g><path d="M199.235 111.304h34.504c6.147 0 11.13-4.983 11.13-11.13 0-6.147-4.983-11.13-11.13-11.13h-34.504c-6.147 0-11.13 4.983-11.13 11.13-.001 6.147 4.982 11.13 11.13 11.13zM289.391 133.565c18.412 0 33.391-14.979 33.391-33.391s-14.979-33.391-33.391-33.391S256 81.762 256 100.174s14.979 33.391 33.391 33.391zm0-44.522c6.137 0 11.13 4.993 11.13 11.13s-4.993 11.13-11.13 11.13-11.13-4.993-11.13-11.13 4.993-11.13 11.13-11.13z"/><path d="M478.609 402.105V277.408C497.79 272.453 512 255.003 512 234.296c0-24.549-19.972-44.522-44.522-44.522h-33.391c-.219 0-.434.02-.65.033-.216-.011-.43-.033-.649-.033h-98.875v-11.687h22.261c6.146 0 11.13-4.983 11.13-11.13V88.209C367.304 39.57 327.733 0 279.096 0h-46.191c-48.639 0-88.209 39.57-88.209 88.209v78.748c0 6.147 4.983 11.13 11.13 11.13h22.261v11.687H79.212c-.219 0-.432.022-.648.033-.216-.012-.431-.033-.65-.033H44.522C19.972 189.774 0 209.746 0 234.296c0 20.707 14.21 38.157 33.391 43.113v124.696C14.21 407.06 0 424.51 0 445.217c0 6.147 4.983 11.13 11.13 11.13s11.13-4.983 11.13-11.13c0-12.275 9.986-22.261 22.261-22.261s22.261 9.986 22.261 22.261c0 6.147 4.983 11.13 11.13 11.13s11.13-4.983 11.13-11.13c0-20.707-14.21-38.157-33.391-43.113V278.817h11.13v44.151c0 67.408 54.841 122.249 122.249 122.249h11.316v11.13C200.348 487.034 225.313 512 256 512s55.652-24.966 55.652-55.652v-11.13h11.316c67.408 0 122.249-54.841 122.249-122.249v-44.151h11.13v123.287c-19.181 4.955-33.391 22.406-33.391 43.113 0 6.147 4.984 11.13 11.13 11.13 6.146 0 11.13-4.983 11.13-11.13 0-12.275 9.986-22.261 22.261-22.261s22.261 9.986 22.261 22.261c0 6.147 4.984 11.13 11.13 11.13 6.146 0 11.13-4.983 11.13-11.13.002-20.708-14.208-38.158-33.389-43.113zM166.957 88.209c0-36.363 29.585-65.948 65.948-65.948h46.191c36.364 0 65.948 29.585 65.948 65.948v67.617H166.956V88.209zm33.391 89.878h111.304v11.687H200.348v-11.687zm-155.826 78.47c-12.275 0-22.261-9.986-22.261-22.261s9.986-22.261 22.261-22.261h22.261v44.522H44.522zm244.869 199.791c0 18.412-14.979 33.391-33.391 33.391s-33.391-14.979-33.391-33.391v-11.13h66.783v11.13zm133.566-133.38c0 55.133-44.855 99.988-99.988 99.988H189.032c-55.133 0-99.988-44.855-99.988-99.988V212.034h333.913v110.934zm22.26-110.933h22.261c12.275 0 22.261 9.986 22.261 22.261s-9.986 22.261-22.261 22.261h-22.261v-44.522z"/><path d="M344.185 274.009a10.948 10.948 0 00-1.024-1.926c-.4-.612-.867-1.18-1.38-1.692a10.677 10.677 0 00-1.692-1.38 10.948 10.948 0 00-1.926-1.024 10.43 10.43 0 00-2.08-.634 10.976 10.976 0 00-4.341 0c-.712.134-1.414.356-2.081.634a10.93 10.93 0 00-1.924 1.024 10.64 10.64 0 00-1.693 1.38c-.512.512-.979 1.08-1.38 1.692-.4.601-.746 1.247-1.024 1.926a10.371 10.371 0 00-.633 2.081c-.146.712-.223 1.447-.223 2.17s.077 1.458.223 2.17c.132.712.355 1.414.633 2.081.278.679.624 1.325 1.024 1.926.401.612.868 1.18 1.38 1.692.512.512 1.08.979 1.693 1.38a10.93 10.93 0 001.924 1.024c.669.278 1.369.501 2.081.634a10.94 10.94 0 002.17.223c.722 0 1.458-.078 2.17-.223a10.455 10.455 0 002.08-.634 10.948 10.948 0 001.926-1.024c.612-.401 1.18-.868 1.692-1.38.513-.512.981-1.08 1.38-1.692.401-.601.746-1.247 1.024-1.926.278-.668.501-1.369.634-2.081.145-.712.223-1.447.223-2.17s-.078-1.458-.223-2.17a10.243 10.243 0 00-.633-2.081z"/><path d="M389.565 234.296H278.261c-6.146 0-11.13 4.983-11.13 11.13v32.835c0 6.147 4.984 11.13 11.13 11.13h22.261c6.146 0 11.13-4.983 11.13-11.13s-4.984-11.13-11.13-11.13h-11.13v-10.574h89.043v10.574h-11.13c-6.146 0-11.13 4.983-11.13 11.13s4.984 11.13 11.13 11.13h22.261c6.146 0 11.13-4.983 11.13-11.13v-32.835c0-6.147-4.985-11.13-11.131-11.13z"/></g><g fill="#00bdd8"><path d="M189.217 166.957h133.565v33.948H189.217zM467.478 267.687h-33.391v-66.783h33.391c18.442 0 33.391 14.949 33.391 33.391.001 18.443-14.949 33.392-33.391 33.392zM44.522 267.687h33.391v-66.783H44.522c-18.442 0-33.391 14.949-33.391 33.391-.001 18.443 14.949 33.392 33.391 33.392z"/></g><g fill="#3af4ef"><path d="M356.174 166.957H155.826V88.209c0-42.569 34.509-77.078 77.078-77.078h46.191c42.569 0 77.078 34.509 77.078 77.078v78.748zM322.968 434.087H189.031c-61.369 0-111.118-49.75-111.118-111.118V202.203c0-.717.581-1.299 1.299-1.299h353.577c.717 0 1.299.581 1.299 1.299v120.765c-.001 61.369-49.751 111.119-111.12 111.119z"/></g><g fill="#2ecc71"><circle cx="289.391" cy="100.174" r="22.261"/><path d="M256 500.87c-24.588 0-44.522-19.933-44.522-44.522v-22.261h89.043v22.261c.001 24.588-19.933 44.522-44.521 44.522zM278.261 245.426v32.835H389.565v-32.835z"/></g><path d="M199.235 111.304h34.504c6.147 0 11.13-4.983 11.13-11.13 0-6.147-4.983-11.13-11.13-11.13h-34.504c-6.147 0-11.13 4.983-11.13 11.13-.001 6.147 4.982 11.13 11.13 11.13zM289.391 133.565c18.412 0 33.391-14.979 33.391-33.391s-14.979-33.391-33.391-33.391S256 81.762 256 100.174s14.979 33.391 33.391 33.391zm0-44.522c6.137 0 11.13 4.993 11.13 11.13s-4.993 11.13-11.13 11.13-11.13-4.993-11.13-11.13 4.993-11.13 11.13-11.13z"/><path d="M478.609 402.105V277.408C497.79 272.453 512 255.003 512 234.296c0-24.549-19.972-44.522-44.522-44.522h-33.391c-.219 0-.434.02-.65.033-.216-.011-.43-.033-.649-.033h-98.875v-11.687h22.261c6.146 0 11.13-4.983 11.13-11.13V88.209C367.304 39.57 327.733 0 279.096 0h-46.191c-48.639 0-88.209 39.57-88.209 88.209v78.748c0 6.147 4.983 11.13 11.13 11.13h22.261v11.687H79.212c-.219 0-.432.022-.648.033-.216-.012-.431-.033-.65-.033H44.522C19.972 189.774 0 209.746 0 234.296c0 20.707 14.21 38.157 33.391 43.113v124.696C14.21 407.06 0 424.51 0 445.217c0 6.147 4.983 11.13 11.13 11.13s11.13-4.983 11.13-11.13c0-12.275 9.986-22.261 22.261-22.261s22.261 9.986 22.261 22.261c0 6.147 4.983 11.13 11.13 11.13s11.13-4.983 11.13-11.13c0-20.707-14.21-38.157-33.391-43.113V278.817h11.13v44.151c0 67.408 54.841 122.249 122.249 122.249h11.316v11.13C200.348 487.034 225.313 512 256 512s55.652-24.966 55.652-55.652v-11.13h11.316c67.408 0 122.249-54.841 122.249-122.249v-44.151h11.13v123.287c-19.181 4.955-33.391 22.406-33.391 43.113 0 6.147 4.984 11.13 11.13 11.13 6.146 0 11.13-4.983 11.13-11.13 0-12.275 9.986-22.261 22.261-22.261s22.261 9.986 22.261 22.261c0 6.147 4.984 11.13 11.13 11.13 6.146 0 11.13-4.983 11.13-11.13.002-20.708-14.208-38.158-33.389-43.113zM166.957 88.209c0-36.363 29.585-65.948 65.948-65.948h46.191c36.364 0 65.948 29.585 65.948 65.948v67.617H166.956V88.209zm33.391 89.878h111.304v11.687H200.348v-11.687zm-155.826 78.47c-12.275 0-22.261-9.986-22.261-22.261s9.986-22.261 22.261-22.261h22.261v44.522H44.522zm244.869 199.791c0 18.412-14.979 33.391-33.391 33.391s-33.391-14.979-33.391-33.391v-11.13h66.783v11.13zm133.566-133.38c0 55.133-44.855 99.988-99.988 99.988H189.032c-55.133 0-99.988-44.855-99.988-99.988V212.034h333.913v110.934zm22.26-110.933h22.261c12.275 0 22.261 9.986 22.261 22.261s-9.986 22.261-22.261 22.261h-22.261v-44.522z"/><path d="M344.185 274.009a10.948 10.948 0 00-1.024-1.926c-.4-.612-.867-1.18-1.38-1.692a10.677 10.677 0 00-1.692-1.38 10.948 10.948 0 00-1.926-1.024 10.43 10.43 0 00-2.08-.634 10.976 10.976 0 00-4.341 0c-.712.134-1.414.356-2.081.634a10.93 10.93 0 00-1.924 1.024 10.64 10.64 0 00-1.693 1.38c-.512.512-.979 1.08-1.38 1.692-.4.601-.746 1.247-1.024 1.926a10.371 10.371 0 00-.633 2.081c-.146.712-.223 1.447-.223 2.17s.077 1.458.223 2.17c.132.712.355 1.414.633 2.081.278.679.624 1.325 1.024 1.926.401.612.868 1.18 1.38 1.692.512.512 1.08.979 1.693 1.38a10.93 10.93 0 001.924 1.024c.669.278 1.369.501 2.081.634a10.94 10.94 0 002.17.223c.722 0 1.458-.078 2.17-.223a10.455 10.455 0 002.08-.634 10.948 10.948 0 001.926-1.024c.612-.401 1.18-.868 1.692-1.38.513-.512.981-1.08 1.38-1.692.401-.601.746-1.247 1.024-1.926.278-.668.501-1.369.634-2.081.145-.712.223-1.447.223-2.17s-.078-1.458-.223-2.17a10.243 10.243 0 00-.633-2.081z"/><path d="M389.565 234.296H278.261c-6.146 0-11.13 4.983-11.13 11.13v32.835c0 6.147 4.984 11.13 11.13 11.13h22.261c6.146 0 11.13-4.983 11.13-11.13s-4.984-11.13-11.13-11.13h-11.13v-10.574h89.043v10.574h-11.13c-6.146 0-11.13 4.983-11.13 11.13s4.984 11.13 11.13 11.13h22.261c6.146 0 11.13-4.983 11.13-11.13v-32.835c0-6.147-4.985-11.13-11.131-11.13z"/></svg>